<svg width="156" height="44" viewBox="0 0 156 44" fill="none" xmlns="http://www.w3.org/2000/svg">
<path d="M21.95 25.21C23.6565 25.21 25.04 23.8266 25.04 22.12C25.04 20.4134 23.6565 19.03 21.95 19.03C20.2434 19.03 18.86 20.4134 18.86 22.12C18.86 23.8266 20.2434 25.21 21.95 25.21Z" fill="white"/>
<path fill-rule="evenodd" clip-rule="evenodd" d="M34.21 22.13C34.2135 24.8342 33.3163 27.4625 31.66 29.6L33.87 31.8C36.0943 29.0662 37.3087 25.6494 37.3087 22.125C37.3087 18.6006 36.0943 15.1838 33.87 12.45L31.66 14.65C33.3177 16.7906 34.215 19.4226 34.21 22.13Z" fill="white"/>
<path fill-rule="evenodd" clip-rule="evenodd" d="M38.48 36.42C41.9179 32.4529 43.8104 27.3794 43.8104 22.13C43.8104 16.8806 41.9179 11.8071 38.48 7.84003L36.06 10.25C38.8619 13.5725 40.3988 17.7788 40.3988 22.125C40.3988 26.4712 38.8619 30.6775 36.06 34L38.48 36.42Z" fill="white"/>
<path fill-rule="evenodd" clip-rule="evenodd" d="M28.03 22.13C28.0251 23.1847 27.7422 24.2195 27.21 25.13L29.45 27.37C30.5373 25.8296 31.121 23.9904 31.121 22.105C31.121 20.2195 30.5373 18.3804 29.45 16.84L27.21 19.08C27.7508 20.0052 28.034 21.0584 28.03 22.13Z" fill="white"/>
<path fill-rule="evenodd" clip-rule="evenodd" d="M21.96 40.51C19.1507 40.5128 16.3778 39.8738 13.8531 38.6415C11.3284 37.4093 9.11867 35.6165 7.39255 33.3999C5.66642 31.1834 4.46956 28.6018 3.89334 25.8522C3.31713 23.1025 3.37678 20.2576 4.06776 17.5345C4.75875 14.8115 6.06279 12.2823 7.88033 10.1401C9.69786 7.99791 11.9808 6.29931 14.5549 5.17399C17.1291 4.04867 19.9263 3.52639 22.7331 3.64701C25.5398 3.76764 28.2819 4.52796 30.75 5.86997L28.44 8.16996C25.9654 7.01969 23.229 6.54994 20.5124 6.809C17.7959 7.06806 15.1975 8.04659 12.985 9.64384C10.7724 11.2411 9.02566 13.3993 7.92461 15.8962C6.82356 18.393 6.40802 21.1382 6.72081 23.8491C7.0336 26.56 8.06342 29.1384 9.70416 31.3189C11.3449 33.4995 13.5373 35.2032 16.0555 36.2546C18.5736 37.306 21.3266 37.667 24.0307 37.3006C26.7348 36.9342 29.2924 35.8536 31.44 34.17L24.75 27.51C23.8905 27.9649 22.9325 28.2018 21.96 28.2C21.0406 28.2002 20.1331 27.9916 19.3061 27.5899C18.4791 27.1881 17.7542 26.6038 17.1861 25.8809C16.6179 25.158 16.2214 24.3155 16.0265 23.417C15.8315 22.5185 15.8432 21.5875 16.0607 20.6941C16.2782 19.8008 16.6958 18.9686 17.2819 18.2602C17.8681 17.5519 18.6075 16.986 19.4443 16.6051C20.2811 16.2243 21.1936 16.0386 22.1127 16.0619C23.0318 16.0853 23.9336 16.3171 24.75 16.74L27.01 14.49C25.8166 13.7007 24.455 13.202 23.0341 13.0337C21.6133 12.8655 20.1728 13.0324 18.8281 13.5211C17.4834 14.0098 16.2718 14.8067 15.2906 15.848C14.3093 16.8893 13.5856 18.1459 13.1775 19.5172C12.7694 20.8885 12.6882 22.3364 12.9404 23.7448C13.1926 25.1532 13.7712 26.4828 14.6298 27.6273C15.4884 28.7718 16.6032 29.6992 17.8849 30.3352C19.1665 30.9713 20.5793 31.2983 22.01 31.29C22.5467 31.2861 23.082 31.2359 23.61 31.14L26.13 33.66C24.1367 34.3777 21.9914 34.5665 19.9034 34.2082C17.8153 33.8499 15.8558 32.9567 14.2158 31.6155C12.5758 30.2744 11.3113 28.5311 10.5456 26.5557C9.77994 24.5803 9.53921 22.4403 9.84691 20.3442C10.1546 18.2481 11.0002 16.2675 12.3013 14.5956C13.6024 12.9236 15.3146 11.6173 17.2708 10.8041C19.2271 9.99083 21.3607 9.69845 23.4637 9.95536C25.5666 10.2123 27.5671 11.0097 29.27 12.27L36.1 5.43998C32.9181 2.7515 29.0341 1.02858 24.9055 0.474284C20.7769 -0.0800149 16.576 0.557432 12.7976 2.31144C9.01932 4.06545 5.82112 6.86293 3.57994 10.3742C1.33876 13.8856 0.14801 17.9644 0.14801 22.13C0.14801 26.2956 1.33876 30.3744 3.57994 33.8857C5.82112 37.397 9.01932 40.1945 12.7976 41.9485C16.576 43.7025 20.7769 44.34 24.9055 43.7857C29.0341 43.2314 32.9181 41.5085 36.1 38.82L33.69 36.4C30.3751 39.0891 26.2284 40.542 21.96 40.51Z" fill="#21D8D8"/>
<path d="M61.27 31.89C59.8874 31.9432 58.5102 31.6891 57.2376 31.1462C55.9649 30.6032 54.8285 29.7848 53.91 28.75C52.2418 26.8602 51.3489 24.4101 51.41 21.89C51.3344 19.4685 52.1897 17.1101 53.8 15.3C54.7533 14.2885 55.9152 13.4963 57.205 12.9783C58.4948 12.4603 59.8819 12.2288 61.27 12.3H72.27V15.71H61.27C60.3835 15.6747 59.4996 15.8286 58.6772 16.1613C57.8547 16.4941 57.1126 16.9982 56.5 17.64C55.4263 18.7987 54.8144 20.3107 54.78 21.89C54.684 23.5382 55.2327 25.1591 56.31 26.41C56.9337 27.1094 57.7073 27.6588 58.5731 28.0173C59.4389 28.3757 60.3745 28.5339 61.31 28.48H72.31V31.89H61.27Z" fill="white"/>
<path d="M76.1 31.88V12.3H79.51V31.88H76.1Z" fill="white"/>
<path d="M98.39 31.89H83.46V28.51H98.39C99.3581 28.5593 100.312 28.2614 101.08 27.67C101.367 27.447 101.599 27.1621 101.76 26.8365C101.921 26.511 102.007 26.1532 102.01 25.7901C102.013 25.436 101.933 25.086 101.777 24.7683C101.621 24.4505 101.392 24.1737 101.11 23.96C100.324 23.3841 99.363 23.0979 98.39 23.15H89.12C88.2821 23.1918 87.4443 23.0636 86.6573 22.7731C85.8702 22.4827 85.15 22.0361 84.54 21.46C83.5653 20.4672 83.0192 19.1314 83.0192 17.74C83.0192 16.3486 83.5653 15.0129 84.54 14.02C85.15 13.444 85.8702 12.9974 86.6573 12.7069C87.4443 12.4165 88.2821 12.2883 89.12 12.33H103.9V15.74H89.12C88.4899 15.7051 87.8716 15.9208 87.4 16.34C87.2016 16.5175 87.043 16.7348 86.9344 16.9777C86.8259 17.2207 86.7698 17.4839 86.77 17.75C86.7634 18.0065 86.8118 18.2615 86.9118 18.4978C87.0119 18.734 87.1613 18.9462 87.35 19.12C87.835 19.5523 88.4713 19.7752 89.12 19.74H98.38C99.2996 19.7006 100.218 19.8498 101.077 20.1782C101.937 20.5067 102.721 21.0076 103.38 21.65C103.928 22.2058 104.36 22.8652 104.65 23.5898C104.94 24.3144 105.083 25.0896 105.07 25.87C105.087 26.6418 104.948 27.4092 104.661 28.1258C104.374 28.8425 103.945 29.4936 103.4 30.0401C102.739 30.6776 101.954 31.1732 101.094 31.4965C100.234 31.8198 99.3175 31.9639 98.4 31.92L98.39 31.89Z" fill="white"/>
<path d="M122.3 31.89H107.37V28.51H122.3C123.268 28.5593 124.222 28.2614 124.99 27.67C125.277 27.447 125.509 27.1621 125.67 26.8365C125.831 26.511 125.917 26.1532 125.92 25.7901C125.923 25.436 125.843 25.086 125.687 24.7683C125.531 24.4505 125.302 24.1737 125.02 23.96C124.234 23.3841 123.273 23.0979 122.3 23.15H113.04C112.202 23.1918 111.364 23.0636 110.577 22.7731C109.79 22.4827 109.07 22.0361 108.46 21.46C107.485 20.4672 106.939 19.1314 106.939 17.74C106.939 16.3486 107.485 15.0129 108.46 14.02C109.07 13.444 109.79 12.9974 110.577 12.7069C111.364 12.4165 112.202 12.2883 113.04 12.33H127.83V15.74H113.04C112.41 15.7051 111.792 15.9208 111.32 16.34C111.124 16.5191 110.968 16.737 110.862 16.9798C110.755 17.2225 110.7 17.4848 110.7 17.75C110.694 18.0055 110.742 18.2594 110.84 18.4954C110.938 18.7313 111.085 18.9441 111.27 19.12C111.755 19.5523 112.391 19.7752 113.04 19.74H122.3C123.22 19.6983 124.138 19.8463 124.999 20.1749C125.859 20.5035 126.642 21.0056 127.3 21.65C127.848 22.2058 128.28 22.8652 128.57 23.5898C128.86 24.3144 129.003 25.0896 128.99 25.87C129.006 26.6408 128.868 27.4071 128.583 28.1234C128.298 28.8397 127.872 29.4915 127.33 30.0401C126.667 30.6757 125.882 31.17 125.023 31.4932C124.163 31.8163 123.247 31.9615 122.33 31.92L122.3 31.89Z" fill="white"/>
<path d="M145.51 14.16C145.164 13.5562 144.681 13.0424 144.1 12.66C143.711 12.3782 143.24 12.2339 142.76 12.25C142.304 12.3056 141.871 12.4855 141.51 12.77C140.968 13.1272 140.513 13.6024 140.18 14.16L129.55 31.86H133.94L142.77 17.34L146.18 22.98H141.34L139.26 26.38H148.21L151.53 31.86H155.92L145.51 14.16Z" fill="white"/>
</svg>
