<svg width="64" height="123" viewBox="0 0 64 123" fill="none" xmlns="http://www.w3.org/2000/svg">
<rect x="4" y="45" width="48" height="3" fill="#2F333E"/>
<path d="M25 27H31V123H25V27Z" fill="#2F333E"/>
<rect x="4" y="45" width="18" height="30" fill="#1D3075"/>
<rect x="34" y="45" width="18" height="30" fill="#1D3075"/>
<rect x="4" y="33" width="48" height="6" fill="#2F333E"/>
<rect x="40" y="30" width="6" height="12" fill="#2F333E"/>
<rect x="10" y="30" width="6" height="12" fill="#2F333E"/>
<g filter="url(#filter0_d_130_5283)">
<path d="M16 12H10V15H7V18H4V24H7V27H10V30H16V27H19V24H22V18H19V15H16V12Z" fill="#FFFCBF"/>
</g>
<g filter="url(#filter1_d_130_5283)">
<path d="M46 12H40V15H37V18H34V24H37V27H40V30H46V27H49V24H52V18H49V15H46V12Z" fill="#FFFCBF"/>
</g>
<defs>
<filter id="filter0_d_130_5283" x="-8" y="0" width="42" height="42" filterUnits="userSpaceOnUse" color-interpolation-filters="sRGB">
<feFlood flood-opacity="0" result="BackgroundImageFix"/>
<feColorMatrix in="SourceAlpha" type="matrix" values="0 0 0 0 0 0 0 0 0 0 0 0 0 0 0 0 0 0 127 0" result="hardAlpha"/>
<feOffset/>
<feGaussianBlur stdDeviation="6"/>
<feComposite in2="hardAlpha" operator="out"/>
<feColorMatrix type="matrix" values="0 0 0 0 1 0 0 0 0 0.988235 0 0 0 0 0.74902 0 0 0 1 0"/>
<feBlend mode="normal" in2="BackgroundImageFix" result="effect1_dropShadow_130_5283"/>
<feBlend mode="normal" in="SourceGraphic" in2="effect1_dropShadow_130_5283" result="shape"/>
</filter>
<filter id="filter1_d_130_5283" x="22" y="0" width="42" height="42" filterUnits="userSpaceOnUse" color-interpolation-filters="sRGB">
<feFlood flood-opacity="0" result="BackgroundImageFix"/>
<feColorMatrix in="SourceAlpha" type="matrix" values="0 0 0 0 0 0 0 0 0 0 0 0 0 0 0 0 0 0 127 0" result="hardAlpha"/>
<feOffset/>
<feGaussianBlur stdDeviation="6"/>
<feComposite in2="hardAlpha" operator="out"/>
<feColorMatrix type="matrix" values="0 0 0 0 1 0 0 0 0 0.988235 0 0 0 0 0.74902 0 0 0 1 0"/>
<feBlend mode="normal" in2="BackgroundImageFix" result="effect1_dropShadow_130_5283"/>
<feBlend mode="normal" in="SourceGraphic" in2="effect1_dropShadow_130_5283" result="shape"/>
</filter>
</defs>
</svg>
